<mxfile host="app.diagrams.net" agent="Mozilla/5.0 (Macintosh; Intel Mac OS X 10_15_7) AppleWebKit/537.36 (KHTML, like Gecko) Chrome/129.0.0.0 Safari/537.36" version="24.7.17">
  <diagram name="Generic Online Game Leaderboard System Design" id="o0OCvDqOE0En7-RrT2to">
    <mxGraphModel dx="1804" dy="581" grid="1" gridSize="10" guides="1" tooltips="1" connect="1" arrows="1" fold="1" page="1" pageScale="1" pageWidth="850" pageHeight="1100" math="0" shadow="0">
      <root>
        <mxCell id="0" />
        <mxCell id="1" parent="0" />
        <mxCell id="lO7huxiK2E3GjXsihG1o-1" value="Score Submission Service" style="shape=rect;whiteSpace=wrap;html=1;" vertex="1" parent="1">
          <mxGeometry x="220" y="10" width="160" height="60" as="geometry" />
        </mxCell>
        <mxCell id="lO7huxiK2E3GjXsihG1o-2" value="Ranking Service" style="shape=rect;whiteSpace=wrap;html=1;" vertex="1" parent="1">
          <mxGeometry x="425" y="10" width="160" height="60" as="geometry" />
        </mxCell>
        <mxCell id="lO7huxiK2E3GjXsihG1o-3" value="Leaderboard Service" style="shape=rect;whiteSpace=wrap;html=1;" vertex="1" parent="1">
          <mxGeometry x="650" y="10" width="160" height="60" as="geometry" />
        </mxCell>
        <mxCell id="lO7huxiK2E3GjXsihG1o-5" value="Cache Layer" style="shape=rect;whiteSpace=wrap;html=1;" vertex="1" parent="1">
          <mxGeometry x="650" y="110" width="160" height="60" as="geometry" />
        </mxCell>
        <mxCell id="lO7huxiK2E3GjXsihG1o-21" value="" style="edgeStyle=orthogonalEdgeStyle;rounded=0;orthogonalLoop=1;jettySize=auto;html=1;" edge="1" parent="1" source="lO7huxiK2E3GjXsihG1o-6" target="lO7huxiK2E3GjXsihG1o-10">
          <mxGeometry relative="1" as="geometry" />
        </mxCell>
        <mxCell id="lO7huxiK2E3GjXsihG1o-6" value="Messaging System" style="shape=rect;whiteSpace=wrap;html=1;" vertex="1" parent="1">
          <mxGeometry x="410" y="215" width="160" height="60" as="geometry" />
        </mxCell>
        <mxCell id="lO7huxiK2E3GjXsihG1o-25" style="edgeStyle=orthogonalEdgeStyle;rounded=0;orthogonalLoop=1;jettySize=auto;html=1;exitX=0;exitY=0.5;exitDx=0;exitDy=0;" edge="1" parent="1" source="lO7huxiK2E3GjXsihG1o-7" target="lO7huxiK2E3GjXsihG1o-22">
          <mxGeometry relative="1" as="geometry" />
        </mxCell>
        <mxCell id="lO7huxiK2E3GjXsihG1o-7" value="Frontend API" style="shape=rect;whiteSpace=wrap;html=1;" vertex="1" parent="1">
          <mxGeometry x="20" y="10" width="160" height="60" as="geometry" />
        </mxCell>
        <mxCell id="lO7huxiK2E3GjXsihG1o-9" value="Analytics Service" style="shape=rect;whiteSpace=wrap;html=1;" vertex="1" parent="1">
          <mxGeometry x="425" y="110" width="160" height="60" as="geometry" />
        </mxCell>
        <mxCell id="lO7huxiK2E3GjXsihG1o-26" style="edgeStyle=orthogonalEdgeStyle;rounded=0;orthogonalLoop=1;jettySize=auto;html=1;exitX=0;exitY=0.5;exitDx=0;exitDy=0;" edge="1" parent="1" source="lO7huxiK2E3GjXsihG1o-10" target="lO7huxiK2E3GjXsihG1o-22">
          <mxGeometry relative="1" as="geometry" />
        </mxCell>
        <mxCell id="lO7huxiK2E3GjXsihG1o-10" value="Notification Service" style="shape=rect;whiteSpace=wrap;html=1;" vertex="1" parent="1">
          <mxGeometry x="170" y="215" width="160" height="60" as="geometry" />
        </mxCell>
        <mxCell id="lO7huxiK2E3GjXsihG1o-11" style="edgeStyle=orthogonalEdgeStyle;rounded=0;" edge="1" parent="1" source="lO7huxiK2E3GjXsihG1o-1" target="lO7huxiK2E3GjXsihG1o-2">
          <mxGeometry relative="1" as="geometry" />
        </mxCell>
        <mxCell id="lO7huxiK2E3GjXsihG1o-12" style="edgeStyle=orthogonalEdgeStyle;rounded=0;" edge="1" parent="1" source="lO7huxiK2E3GjXsihG1o-2" target="lO7huxiK2E3GjXsihG1o-3">
          <mxGeometry relative="1" as="geometry" />
        </mxCell>
        <mxCell id="lO7huxiK2E3GjXsihG1o-13" style="edgeStyle=orthogonalEdgeStyle;rounded=0;" edge="1" parent="1" source="lO7huxiK2E3GjXsihG1o-3" target="lO7huxiK2E3GjXsihG1o-5">
          <mxGeometry relative="1" as="geometry" />
        </mxCell>
        <mxCell id="lO7huxiK2E3GjXsihG1o-14" style="edgeStyle=orthogonalEdgeStyle;rounded=0;startArrow=classic;startFill=1;entryX=0.5;entryY=0;entryDx=0;entryDy=0;entryPerimeter=0;" edge="1" parent="1" source="lO7huxiK2E3GjXsihG1o-5" target="lO7huxiK2E3GjXsihG1o-20">
          <mxGeometry relative="1" as="geometry">
            <mxPoint x="730" y="310" as="targetPoint" />
          </mxGeometry>
        </mxCell>
        <mxCell id="lO7huxiK2E3GjXsihG1o-15" style="edgeStyle=orthogonalEdgeStyle;rounded=0;" edge="1" parent="1" target="lO7huxiK2E3GjXsihG1o-6">
          <mxGeometry relative="1" as="geometry">
            <mxPoint x="680" y="245" as="sourcePoint" />
          </mxGeometry>
        </mxCell>
        <mxCell id="lO7huxiK2E3GjXsihG1o-16" style="edgeStyle=orthogonalEdgeStyle;rounded=0;endArrow=none;endFill=0;startArrow=classic;startFill=1;" edge="1" parent="1" source="lO7huxiK2E3GjXsihG1o-1" target="lO7huxiK2E3GjXsihG1o-7">
          <mxGeometry relative="1" as="geometry" />
        </mxCell>
        <mxCell id="lO7huxiK2E3GjXsihG1o-17" style="edgeStyle=orthogonalEdgeStyle;rounded=0;exitX=1;exitY=0.5;exitDx=0;exitDy=0;entryX=0.5;entryY=1;entryDx=0;entryDy=0;" edge="1" parent="1" source="lO7huxiK2E3GjXsihG1o-3" target="lO7huxiK2E3GjXsihG1o-7">
          <mxGeometry relative="1" as="geometry">
            <Array as="points">
              <mxPoint x="860" y="40" />
              <mxPoint x="860" y="300" />
              <mxPoint x="100" y="300" />
            </Array>
          </mxGeometry>
        </mxCell>
        <mxCell id="lO7huxiK2E3GjXsihG1o-19" style="edgeStyle=orthogonalEdgeStyle;rounded=0;" edge="1" parent="1" source="lO7huxiK2E3GjXsihG1o-2" target="lO7huxiK2E3GjXsihG1o-9">
          <mxGeometry relative="1" as="geometry" />
        </mxCell>
        <mxCell id="lO7huxiK2E3GjXsihG1o-20" value="Database" style="strokeWidth=2;html=1;shape=mxgraph.flowchart.database;whiteSpace=wrap;" vertex="1" parent="1">
          <mxGeometry x="685" y="200" width="90" height="90" as="geometry" />
        </mxCell>
        <mxCell id="lO7huxiK2E3GjXsihG1o-24" value="" style="edgeStyle=orthogonalEdgeStyle;rounded=0;orthogonalLoop=1;jettySize=auto;html=1;entryX=0.9;entryY=0.5;entryDx=0;entryDy=0;entryPerimeter=0;" edge="1" parent="1" source="lO7huxiK2E3GjXsihG1o-22" target="lO7huxiK2E3GjXsihG1o-23">
          <mxGeometry relative="1" as="geometry">
            <mxPoint x="-150" y="49" as="targetPoint" />
          </mxGeometry>
        </mxCell>
        <mxCell id="lO7huxiK2E3GjXsihG1o-22" value="" style="sketch=0;outlineConnect=0;fontColor=#232F3E;gradientColor=none;fillColor=#232F3D;strokeColor=none;dashed=0;verticalLabelPosition=bottom;verticalAlign=top;align=center;html=1;fontSize=12;fontStyle=0;aspect=fixed;pointerEvents=1;shape=mxgraph.aws4.mobile_client;" vertex="1" parent="1">
          <mxGeometry x="-50" y="1" width="41" height="78" as="geometry" />
        </mxCell>
        <mxCell id="lO7huxiK2E3GjXsihG1o-23" value="" style="shape=actor;whiteSpace=wrap;html=1;" vertex="1" parent="1">
          <mxGeometry x="-130" y="10" width="40" height="60" as="geometry" />
        </mxCell>
      </root>
    </mxGraphModel>
  </diagram>
</mxfile>
